# Blender 3.3.0
# www.blender.org
mtllib sharpv2.mtl
o Icosphere
v -0.007027 -0.029878 0.021629
v -0.023581 -0.019648 0.021629
v 0.013283 -0.019648 0.029110
v 0.023514 -0.003095 0.029110
v 0.034952 -0.003094 0.013367
v 0.031790 -0.019648 0.003637
v 0.018399 -0.029878 0.013367
v 0.013392 -0.033703 0.009730
v 0.013392 -0.033703 -0.009730
v -0.005115 -0.033703 -0.015743
v -0.016553 -0.033703 0.000000
v -0.005115 -0.033703 0.015743
v -0.016553 -0.033703 0.000000
v -0.005115 -0.033703 -0.015743
v 0.013392 -0.033703 -0.009730
v 0.013392 -0.033703 0.009730
v -0.005115 -0.033703 0.015743
v 0.031790 -0.019648 0.003637
v 0.034952 -0.003094 0.013367
v 0.023514 -0.003095 0.029110
v 0.013283 -0.019648 0.029110
v 0.018399 -0.029878 0.013367
v -0.007027 -0.029878 0.021629
v 0.006364 -0.019648 0.031358
v -0.001912 -0.003094 0.037372
v -0.020419 -0.003095 0.031359
v -0.023581 -0.019648 0.021629
v -0.022742 -0.029878 0.000000
v -0.027857 -0.019648 0.015743
v -0.036134 -0.003094 0.009730
v -0.036134 -0.003094 -0.009730
v -0.027857 -0.019648 -0.015743
v -0.007027 -0.029878 -0.021629
v -0.023581 -0.019648 -0.021629
v -0.020419 -0.003095 -0.031359
v -0.001912 -0.003094 -0.037372
v 0.006364 -0.019648 -0.031358
v 0.031790 -0.019648 -0.003637
v 0.018399 -0.029878 -0.013367
v 0.013283 -0.019648 -0.029110
v 0.023514 -0.003095 -0.029110
v 0.034952 -0.003094 -0.013367
v 0.001912 0.003094 0.037372
v 0.020419 0.003095 0.031359
v 0.023581 0.019648 0.021629
v 0.007027 0.029878 0.021629
v -0.006364 0.019648 0.031358
v -0.034952 0.003094 0.013367
v -0.023514 0.003095 0.029110
v -0.013283 0.019648 0.029110
v -0.018399 0.029878 0.013367
v -0.031790 0.019648 0.003637
v -0.023514 0.003095 -0.029110
v -0.034952 0.003094 -0.013367
v -0.031790 0.019648 -0.003637
v -0.018399 0.029878 -0.013367
v -0.013283 0.019648 -0.029110
v 0.020419 0.003095 -0.031359
v 0.001912 0.003094 -0.037372
v -0.006364 0.019648 -0.031358
v 0.007027 0.029878 -0.021629
v 0.023581 0.019648 -0.021629
v 0.036134 0.003094 0.009730
v 0.036134 0.003094 -0.009730
v 0.027857 0.019648 -0.015743
v 0.022742 0.029878 0.000000
v 0.027857 0.019648 0.015743
v 0.005115 0.033703 0.015743
v 0.016553 0.033703 0.000000
v 0.005115 0.033703 -0.015743
v -0.013392 0.033703 -0.009730
v -0.013392 0.033703 0.009730
v 0.006364 -0.019648 0.031358
v -0.001912 -0.003094 0.037372
v -0.020419 -0.003095 0.031359
v -0.027857 -0.019648 -0.015743
v -0.022742 -0.029878 0.000000
v -0.027857 -0.019648 0.015743
v -0.036134 -0.003094 0.009730
v -0.036134 -0.003094 -0.009730
v 0.006364 -0.019648 -0.031358
v -0.007027 -0.029878 -0.021629
v -0.023581 -0.019648 -0.021629
v -0.020419 -0.003095 -0.031359
v -0.001912 -0.003094 -0.037372
v 0.034952 -0.003094 -0.013367
v 0.031790 -0.019648 -0.003637
v 0.018399 -0.029878 -0.013367
v 0.013283 -0.019648 -0.029110
v 0.023514 -0.003095 -0.029110
v -0.006364 0.019648 0.031358
v 0.001912 0.003094 0.037372
v 0.020419 0.003095 0.031359
v 0.023581 0.019648 0.021629
v 0.007027 0.029878 0.021629
v -0.031790 0.019648 0.003637
v -0.034952 0.003094 0.013367
v -0.023514 0.003095 0.029110
v -0.013283 0.019648 0.029110
v -0.018399 0.029878 0.013367
v -0.013283 0.019648 -0.029110
v -0.023514 0.003095 -0.029110
v -0.034952 0.003094 -0.013367
v -0.031790 0.019648 -0.003637
v -0.018399 0.029878 -0.013367
v 0.023581 0.019648 -0.021629
v 0.020419 0.003095 -0.031359
v 0.001912 0.003094 -0.037372
v -0.006364 0.019648 -0.031358
v 0.007027 0.029878 -0.021629
v 0.027857 0.019648 0.015743
v 0.036134 0.003094 0.009730
v 0.036134 0.003094 -0.009730
v 0.027857 0.019648 -0.015743
v 0.022742 0.029878 0.000000
v -0.013392 0.033703 0.009730
v 0.005115 0.033703 0.015743
v 0.016553 0.033703 0.000000
v 0.005115 0.033703 -0.015743
v -0.013392 0.033703 -0.009730
v 0.226161 -0.139775 -0.164315
v -0.086384 -0.139775 -0.265868
v -0.086384 -0.139775 0.265868
v -0.279550 -0.139775 0.000000
v 0.226161 -0.139775 0.164315
v 0.000001 -0.312547 0.000000
v 0.086384 0.139775 0.265868
v -0.226161 0.139775 0.164315
v -0.226161 0.139775 -0.164315
v 0.086384 0.139775 -0.265868
v 0.279550 0.139775 0.000000
v -0.000001 0.312547 0.000000
vn 0.6071 -0.7947 -0.0000
vn -0.4911 -0.7947 -0.3568
vn 0.1876 -0.7947 0.5774
vn 0.1876 -0.7947 -0.5774
vn 0.3035 -0.1876 0.9342
vn 0.7946 0.1876 0.5774
vn 0.9822 -0.1876 -0.0000
vn -0.3035 0.1876 0.9342
vn -0.9822 0.1876 -0.0000
vn -0.3035 0.1876 -0.9342
vn -0.7946 -0.1876 0.5774
vn -0.7946 -0.1876 -0.5774
vn 0.3035 -0.1876 -0.9342
vn 0.7946 0.1876 -0.5774
vn 0.4911 0.7947 0.3568
vn -0.1876 0.7947 0.5774
vn -0.6071 0.7947 -0.0000
vn -0.1876 0.7947 -0.5774
vn 0.4911 0.7947 -0.3568
vn 0.1513 -0.8719 0.4656
vn -0.0000 1.0000 -0.0000
vn -0.4911 -0.7947 0.3568
vn -0.1513 0.8719 0.4656
vn 0.8081 0.0480 -0.5871
vn -0.8476 -0.2546 0.4656
vn -0.4896 0.8719 -0.0000
vn 0.8081 0.0480 0.5871
vn 0.3185 -0.7442 0.5871
vn -0.3087 0.0480 0.9500
vn -0.4600 -0.7442 0.4843
vn -0.3185 0.7442 0.5871
vn -0.1809 0.2546 -0.9500
vn -0.3185 0.7442 -0.5871
vn -0.3087 0.0480 -0.9500
vn 0.3185 -0.7442 -0.5871
vn 0.9594 -0.2546 -0.1215
vn -0.9988 0.0480 -0.0000
vn -0.4600 -0.7442 -0.4843
vn 0.4600 0.7442 -0.4843
vn 0.8476 0.2546 0.4656
vn -0.6568 0.7442 -0.1215
vn -0.6028 -0.7442 0.2878
vn -0.7048 -0.2546 -0.6622
vn -0.4120 0.2546 0.8749
vn -0.3961 -0.8719 0.2878
vn 0.7048 0.2546 -0.6622
vn 0.4120 -0.2546 0.8749
vn 0.3087 -0.0480 0.9500
vn 0.6028 0.7442 0.2878
vn 0.3087 -0.0480 -0.9500
vn -0.0874 0.7442 -0.6622
vn 0.3961 0.8719 0.2878
vn 0.4120 -0.2546 -0.8749
vn -0.8081 -0.0480 0.5871
vn 0.3961 0.8719 -0.2878
vn -0.3961 -0.8719 -0.2878
vn 0.0874 -0.7442 -0.6622
vn -0.4120 0.2546 -0.8749
vn -0.7048 -0.2546 0.6622
vn 0.9988 -0.0480 -0.0000
vn 0.8476 0.2546 -0.4656
vn -0.0874 0.7442 0.6622
vn -0.8081 -0.0480 -0.5871
vn 0.6028 0.7442 -0.2878
vn -0.1513 0.8719 -0.4656
vn 0.9594 -0.2546 0.1215
vn -0.6028 -0.7442 -0.2878
vn 0.1513 -0.8719 -0.4656
vn 0.0874 -0.7442 0.6622
vn 0.6568 -0.7442 0.1215
vn -0.8476 -0.2546 -0.4656
vn 0.7048 0.2546 0.6622
vn -0.6568 0.7442 0.1215
vn -0.1809 0.2546 0.9500
vn 0.4600 0.7442 0.4843
vn -0.9594 0.2546 -0.1215
vn 0.1809 -0.2546 0.9500
vn 0.4896 -0.8719 -0.0000
vn -0.9594 0.2546 0.1215
vn 0.1809 -0.2546 -0.9500
vn 0.6568 -0.7442 -0.1215
vt 0.961704 0.091130
vt 0.129206 0.091130
vt 0.923409 0.157461
vt 0.196136 0.157461
vt 0.234433 0.223791
vt 0.311024 0.223791
vt 0.349320 0.157461
vt 0.234432 0.091130
vt 0.311024 0.091130
vt 0.220115 0.066331
vt 0.325341 0.066331
vt 0.507159 0.066331
vt 0.401933 0.066331
vt 0.583751 0.066331
vt 0.688977 0.066331
vt 0.870795 0.066331
vt 0.765569 0.066331
vt 0.143523 0.066331
vt 0.947387 0.066331
vt 0.870795 0.066331
vt 0.765569 0.066331
vt 0.688977 0.066331
vt 0.583751 0.066331
vt 0.507159 0.066331
vt 0.401933 0.066331
vt 0.325341 0.066331
vt 0.220115 0.066331
vt 0.947387 0.066331
vt 0.143523 0.066331
vt 0.349321 0.157461
vt 0.311024 0.223791
vt 0.234433 0.223791
vt 0.196136 0.157461
vt 0.234432 0.091130
vt 0.311024 0.091130
vt 0.129206 0.091130
vt 0.961704 0.091130
vt 0.167502 0.157461
vt 0.129206 0.223791
vt 0.961705 0.223791
vt 0.052614 0.223791
vt 0.923409 0.157461
vt 0.779886 0.091130
vt 0.856478 0.091130
vt 0.894773 0.157461
vt 0.856477 0.223791
vt 0.779886 0.223791
vt 0.741591 0.157461
vt 0.598068 0.091130
vt 0.674660 0.091130
vt 0.712955 0.157461
vt 0.674659 0.223791
vt 0.598068 0.223791
vt 0.559772 0.157461
vt 0.377954 0.157461
vt 0.416250 0.091130
vt 0.492842 0.091130
vt 0.531138 0.157461
vt 0.492841 0.223791
vt 0.416250 0.223791
vt 0.143523 0.248591
vt 0.220114 0.248591
vt 0.258410 0.314921
vt 0.220115 0.381252
vt 0.143523 0.381252
vt 0.105227 0.314921
vt 0.870795 0.248591
vt 0.038296 0.248591
vt 0.947386 0.248591
vt 0.076592 0.314921
vt 0.870795 0.381252
vt 0.038296 0.381252
vt 0.832498 0.314921
vt 0.688978 0.248591
vt 0.765568 0.248591
vt 0.803865 0.314921
vt 0.765569 0.381252
vt 0.688977 0.381252
vt 0.650681 0.314921
vt 0.507160 0.248591
vt 0.583751 0.248591
vt 0.622047 0.314921
vt 0.583751 0.381252
vt 0.507159 0.381252
vt 0.468864 0.314921
vt 0.325341 0.248591
vt 0.401933 0.248591
vt 0.440228 0.314921
vt 0.401933 0.381252
vt 0.325341 0.381252
vt 0.287046 0.314921
vt 0.129206 0.406051
vt 0.234432 0.406051
vt 0.311024 0.406051
vt 0.416250 0.406051
vt 0.492842 0.406051
vt 0.598068 0.406051
vt 0.674660 0.406051
vt 0.779886 0.406051
vt 0.052614 0.406051
vt 0.856478 0.406051
vt 0.167502 0.157461
vt 0.129206 0.223791
vt 0.052614 0.223791
vt 0.961705 0.223791
vt 0.741591 0.157461
vt 0.856478 0.091130
vt 0.779886 0.091130
vt 0.894773 0.157461
vt 0.856477 0.223791
vt 0.779886 0.223791
vt 0.559772 0.157461
vt 0.674660 0.091130
vt 0.598068 0.091130
vt 0.712955 0.157461
vt 0.674659 0.223791
vt 0.598068 0.223791
vt 0.416250 0.223791
vt 0.377954 0.157461
vt 0.492842 0.091130
vt 0.416250 0.091130
vt 0.531138 0.157461
vt 0.492841 0.223791
vt 0.105227 0.314921
vt 0.143523 0.248591
vt 0.220114 0.248591
vt 0.258410 0.314921
vt 0.220115 0.381252
vt 0.143523 0.381252
vt 0.832498 0.314921
vt 0.870795 0.248591
vt 0.947386 0.248591
vt 0.038296 0.248591
vt 0.076592 0.314921
vt 0.038296 0.381252
vt 0.870795 0.381252
vt 0.650681 0.314921
vt 0.688978 0.248591
vt 0.765568 0.248591
vt 0.803865 0.314921
vt 0.765569 0.381252
vt 0.688977 0.381252
vt 0.468864 0.314921
vt 0.507160 0.248591
vt 0.583751 0.248591
vt 0.622047 0.314921
vt 0.583751 0.381252
vt 0.507159 0.381252
vt 0.287046 0.314921
vt 0.325341 0.248591
vt 0.401933 0.248591
vt 0.440228 0.314921
vt 0.401933 0.381252
vt 0.325341 0.381252
vt 0.052614 0.406051
vt 0.856478 0.406051
vt 0.129206 0.406051
vt 0.234432 0.406051
vt 0.311024 0.406051
vt 0.416250 0.406051
vt 0.492842 0.406051
vt 0.598068 0.406051
vt 0.674660 0.406051
vt 0.779886 0.406051
vt 0.492841 0.223791
vt 0.531138 0.157461
vt 0.492842 0.091130
vt 0.377954 0.157461
vt 0.416250 0.223791
vt 0.674660 0.091130
vt 0.598068 0.223791
vt 0.674659 0.223791
vt 0.559772 0.157461
vt 0.712955 0.157461
vt 0.129206 0.223791
vt 0.923409 0.157461
vt 0.167502 0.157461
vt 0.961705 0.223791
vt 0.129206 0.091130
vt 0.856477 0.223791
vt 0.856478 0.091130
vt 0.779886 0.223791
vt 0.741591 0.157461
vt 0.894773 0.157461
vt 0.196136 0.157461
vt 0.234433 0.223791
vt 0.349321 0.157461
vt 0.311024 0.223791
vt 0.311024 0.091130
vt 0.220115 0.066331
vt 0.583751 0.066331
vt 0.947387 0.066331
vt 0.401933 0.066331
vt 0.765569 0.066331
vt 0.143523 0.248591
vt 0.105227 0.314921
vt 0.220114 0.248591
vt 0.258410 0.314921
vt 0.143523 0.381252
vt 0.832498 0.314921
vt 0.870795 0.248591
vt 0.038296 0.248591
vt 0.076592 0.314921
vt 0.870795 0.381252
vt 0.650681 0.314921
vt 0.688978 0.248591
vt 0.765568 0.248591
vt 0.803865 0.314921
vt 0.688977 0.381252
vt 0.468864 0.314921
vt 0.507160 0.248591
vt 0.583751 0.248591
vt 0.622047 0.314921
vt 0.507159 0.381252
vt 0.325341 0.381252
vt 0.440228 0.314921
vt 0.287046 0.314921
vt 0.325341 0.248591
vt 0.401933 0.248591
vt 0.416250 0.406051
vt 0.234432 0.406051
vt 0.052614 0.406051
vt 0.598068 0.406051
vt 0.779886 0.406051
s 0
f 18/30/1 22/35/1 16/26/1 15/25/1 39/56/1 38/55/1
f 14/22/2 13/21/2 28/43/2 32/48/2 34/51/2 33/50/2
f 17/29/3 16/27/3 22/34/3 21/33/3 24/38/3 23/36/3
f 15/24/4 14/23/4 33/49/4 37/54/4 40/58/4 39/57/4
f 25/39/5 24/38/5 21/33/5 20/32/5 44/62/5 43/61/5
f 20/32/6 19/31/6 63/86/6 67/91/6 45/63/6 44/62/6
f 19/31/7 18/30/7 38/55/7 42/60/7 64/87/7 63/86/7
f 26/41/8 25/39/8 43/61/8 47/66/8 50/70/8 49/68/8
f 31/47/9 30/46/9 48/67/9 52/73/9 55/76/9 54/75/9
f 36/53/10 35/52/10 53/74/10 57/79/10 60/82/10 59/81/10
f 30/46/11 29/45/11 27/42/11 26/40/11 49/69/11 48/67/11
f 35/52/12 34/51/12 32/48/12 31/47/12 54/75/12 53/74/12
f 41/59/13 40/58/13 37/54/13 36/53/13 59/81/13 58/80/13
f 42/60/14 41/59/14 58/80/14 62/85/14 65/88/14 64/87/14
f 46/64/15 45/63/15 67/91/15 66/90/15 69/94/15 68/93/15
f 51/72/16 50/70/16 47/66/16 46/65/16 68/92/16 72/100/16
f 56/77/17 55/76/17 52/73/17 51/71/17 72/101/17 71/99/17
f 61/83/18 60/82/18 57/79/18 56/78/18 71/98/18 70/97/18
f 66/89/19 65/88/19 62/85/19 61/84/19 70/96/19 69/95/19
f 92/125/20 93/126/20 127/195/20
f 26/40/21 27/42/21 2/3/21 75/105/21
f 57/79/21 53/74/21 102/138/21 101/137/21
f 25/39/21 26/41/21 75/104/21 74/103/21
f 51/71/21 52/73/21 96/130/21 100/136/21
f 24/38/21 25/39/21 74/103/21 73/102/21
f 50/70/21 51/72/21 100/135/21 99/134/21
f 23/36/21 24/38/21 73/102/21 1/2/21
f 49/68/21 50/70/21 99/134/21 98/133/21
f 27/42/21 23/37/21 1/1/21 2/3/21
f 48/67/21 49/69/21 98/132/21 97/131/21
f 21/33/21 22/34/21 7/8/21 3/4/21
f 52/73/21 48/67/21 97/131/21 96/130/21
f 13/20/22 17/28/22 23/37/22 27/42/22 29/45/22 28/44/22
f 74/103/23 75/104/23 123/175/23
f 118/160/24 119/161/24 132/220/24
f 91/124/25 92/125/25 127/196/25
f 79/110/26 80/111/26 124/180/26
f 117/158/27 118/159/27 132/221/27
f 77/107/28 78/109/28 124/181/28
f 116/155/29 117/157/29 132/222/29
f 82/113/30 83/115/30 122/170/30
f 115/154/31 111/149/31 131/215/31
f 80/111/32 76/106/32 124/182/32
f 114/152/33 115/153/33 131/216/33
f 53/74/21 54/75/21 103/139/21 102/138/21
f 32/48/21 28/43/21 77/108/21 76/106/21
f 54/75/21 55/76/21 104/140/21 103/139/21
f 28/44/21 29/45/21 78/109/21 77/107/21
f 55/76/21 56/77/21 105/141/21 104/140/21
f 29/45/21 30/46/21 79/110/21 78/109/21
f 56/78/21 57/79/21 101/137/21 105/142/21
f 30/46/21 31/47/21 80/111/21 79/110/21
f 62/85/21 58/80/21 107/144/21 106/143/21
f 31/47/21 32/48/21 76/106/21 80/111/21
f 58/80/21 59/81/21 108/145/21 107/144/21
f 37/54/21 33/49/21 82/114/21 81/112/21
f 59/81/21 60/82/21 109/146/21 108/145/21
f 33/50/21 34/51/21 83/115/21 82/113/21
f 60/82/21 61/83/21 110/147/21 109/146/21
f 34/51/21 35/52/21 84/116/21 83/115/21
f 61/84/21 62/85/21 106/143/21 110/148/21
f 35/52/21 36/53/21 85/117/21 84/116/21
f 67/91/21 63/86/21 112/150/21 111/149/21
f 36/53/21 37/54/21 81/112/21 85/117/21
f 63/86/21 64/87/21 113/151/21 112/150/21
f 42/60/21 38/55/21 87/119/21 86/118/21
f 64/87/21 65/88/21 114/152/21 113/151/21
f 38/55/21 39/56/21 88/121/21 87/119/21
f 17/28/21 13/20/21 11/16/21 12/19/21
f 65/88/21 66/89/21 115/153/21 114/152/21
f 39/57/21 40/58/21 89/122/21 88/120/21
f 13/21/21 14/22/21 10/15/21 11/17/21
f 66/90/21 67/91/21 111/149/21 115/154/21
f 40/58/21 41/59/21 90/123/21 89/122/21
f 14/23/21 15/24/21 9/12/21 10/14/21
f 72/100/21 68/92/21 117/157/21 116/155/21
f 41/59/21 42/60/21 86/118/21 90/123/21
f 15/25/21 16/26/21 8/11/21 9/13/21
f 68/93/21 69/94/21 118/159/21 117/158/21
f 47/66/21 43/61/21 92/125/21 91/124/21
f 16/27/21 17/29/21 12/18/21 8/10/21
f 69/95/21 70/96/21 119/161/21 118/160/21
f 43/61/21 44/62/21 93/126/21 92/125/21
f 22/35/21 18/30/21 6/7/21 7/9/21
f 70/97/21 71/98/21 120/163/21 119/162/21
f 44/62/21 45/63/21 94/127/21 93/126/21
f 18/30/21 19/31/21 5/6/21 6/7/21
f 71/99/21 72/101/21 116/156/21 120/164/21
f 45/63/21 46/64/21 95/128/21 94/127/21
f 19/31/21 20/32/21 4/5/21 5/6/21
f 46/65/21 47/66/21 91/124/21 95/129/21
f 20/32/21 21/33/21 3/4/21 4/5/21
f 119/162/34 120/163/34 132/223/34
f 76/106/35 77/108/35 124/183/35
f 93/126/36 94/127/36 127/197/36
f 120/164/37 116/156/37 132/224/37
f 2/3/38 1/1/38 123/176/38
f 94/127/39 95/128/39 127/198/39
f 73/102/40 74/103/40 123/177/40
f 95/129/41 91/124/41 127/199/41
f 3/4/42 7/8/42 125/185/42
f 96/130/43 97/131/43 128/200/43
f 4/5/44 3/4/44 125/186/44
f 97/131/45 98/132/45 128/201/45
f 6/7/46 5/6/46 125/187/46
f 98/133/47 99/134/47 128/202/47
f 8/10/48 12/18/48 126/190/48
f 99/134/49 100/135/49 128/203/49
f 10/14/50 9/12/50 126/191/50
f 100/136/51 96/130/51 128/204/51
f 5/6/52 4/5/52 125/188/52
f 101/137/53 102/138/53 129/205/53
f 12/19/54 11/16/54 126/192/54
f 90/123/55 86/118/55 121/165/55
f 102/138/56 103/139/56 129/206/56
f 7/9/57 6/7/57 125/189/57
f 89/122/58 90/123/58 121/166/58
f 103/139/59 104/140/59 129/207/59
f 9/13/60 8/11/60 126/193/60
f 85/117/61 81/112/61 122/171/61
f 104/140/62 105/141/62 129/208/62
f 11/17/63 10/15/63 126/194/63
f 105/142/64 101/137/64 129/209/64
f 84/116/65 85/117/65 122/172/65
f 106/143/66 107/144/66 130/210/66
f 88/120/67 89/122/67 121/167/67
f 107/144/68 108/145/68 130/211/68
f 87/119/69 88/121/69 121/168/69
f 81/112/70 82/114/70 122/173/70
f 108/145/71 109/146/71 130/212/71
f 86/118/72 87/119/72 121/169/72
f 109/146/73 110/147/73 130/213/73
f 78/109/74 79/110/74 124/184/74
f 110/148/75 106/143/75 130/214/75
f 75/105/76 2/3/76 123/178/76
f 111/149/77 112/150/77 131/217/77
f 112/150/78 113/151/78 131/218/78
f 83/115/79 84/116/79 122/174/79
f 113/151/80 114/152/80 131/219/80
f 1/2/81 73/102/81 123/179/81
